<svg width="236" height="381" viewBox="0 0 236 381" fill="none" xmlns="http://www.w3.org/2000/svg">
<path d="M41.4485 339.306C44.7991 350.614 78.8009 355.64 117.752 356.058C156.703 355.64 190.704 350.614 194.055 339.305L194.243 337.63L220.377 105.18C220.377 105.18 157.841 105.18 117.752 105.18C77.6622 105.18 15.1268 105.18 15.1268 105.18L41.2601 337.63L41.4485 339.306Z" fill="#6DBBFF" stroke="#87C7FF" stroke-width="8"/>
<path d="M44.0258 362.341C47.3765 373.649 78.7885 377 117.739 376.581C156.69 377 188.102 373.649 191.453 362.341L194.043 339.305C190.692 350.614 156.69 355.64 117.739 356.058C78.7885 355.64 44.7867 350.614 41.4361 339.306L44.0258 362.341Z" fill="#182A39"/>
<path d="M44.0258 362.341C47.3765 373.649 78.7885 377 117.739 376.581C156.69 377 188.102 373.649 191.453 362.341L194.043 339.305M44.0258 362.341L41.2477 337.63M44.0258 362.341L41.4361 339.306M41.2477 337.63L15.1144 105.181L4.2373 8.43247C7.25286 4.07667 81.1618 4.66303 117.739 4.2442C154.317 4.66303 228.226 4.07637 231.241 8.43217L220.364 105.181L194.231 337.63L194.043 339.305M41.2477 337.63L41.4361 339.306M41.4361 339.306C44.7867 350.614 78.7885 355.64 117.739 356.058C156.69 355.64 190.692 350.614 194.043 339.305" stroke="#001324" stroke-width="8"/>
<path d="M150.325 265.341C147.315 265.341 144.989 264.52 143.348 262.878C141.745 261.197 140.943 258.774 140.943 255.607V221.364H149.915V254.962C149.915 256.76 150.755 257.66 152.436 257.66C153.335 257.66 154.097 257.445 154.723 257.015L156.892 263.406C156.228 263.953 155.309 264.403 154.136 264.754C152.964 265.145 151.693 265.341 150.325 265.341Z" fill="black"/>
<path d="M84.1973 264.754V234.909H93.11L92.7581 241.066C94.009 238.759 95.5727 237.078 97.449 236.023C99.3253 234.967 101.319 234.44 103.43 234.44C105.502 234.44 107.358 234.967 109 236.023C110.642 237.039 111.893 238.701 112.753 241.007C114.082 238.779 115.763 237.137 117.796 236.082C119.867 234.987 121.959 234.44 124.07 234.44C127.588 234.44 130.226 235.652 131.985 238.075C133.745 240.46 134.605 243.9 134.565 248.395L134.448 264.754H125.477L125.594 248.571C125.594 246.773 125.262 245.366 124.597 244.349C123.933 243.294 122.916 242.766 121.548 242.766C120.493 242.766 119.496 243.098 118.558 243.763C117.659 244.427 116.857 245.581 116.154 247.222C115.45 248.864 114.883 251.112 114.453 253.965C114.062 256.819 113.828 260.415 113.75 264.754H104.837V248.571C104.837 246.773 104.524 245.366 103.899 244.349C103.273 243.294 102.277 242.766 100.909 242.766C99.8531 242.766 98.8563 243.098 97.9181 243.763C97.019 244.427 96.2177 245.581 95.514 247.222C94.8104 248.864 94.2436 251.112 93.8136 253.965C93.3836 256.819 93.1491 260.415 93.11 264.754H84.1973Z" fill="black"/>
<path d="M153.563 212.569C148.364 212.647 144.416 211.005 141.718 207.643C139.021 204.242 137.672 199.004 137.672 191.929C137.672 187.551 138.317 183.7 139.607 180.378C140.936 177.016 142.813 174.416 145.236 172.579C147.699 170.703 150.631 169.765 154.032 169.765C158.762 169.765 162.436 171.504 165.055 174.983C167.674 178.462 168.984 183.583 168.984 190.346C168.984 194.646 168.358 198.476 167.108 201.838C165.896 205.161 164.137 207.78 161.83 209.695C159.524 211.572 156.768 212.53 153.563 212.569ZM153.27 204.477C155.42 204.477 157.022 203.285 158.078 200.9C159.133 198.476 159.661 194.978 159.661 190.404C159.661 182 157.706 177.798 153.797 177.798C151.608 177.798 149.927 179.029 148.755 181.492C147.621 183.915 147.054 187.336 147.054 191.753C147.054 196.053 147.543 199.258 148.52 201.369C149.536 203.441 151.12 204.477 153.27 204.477Z" fill="black"/>
<path d="M118.404 212.569C113.205 212.647 109.257 211.005 106.56 207.643C103.863 204.242 102.514 199.004 102.514 191.929C102.514 187.551 103.159 183.7 104.449 180.378C105.778 177.016 107.654 174.416 110.078 172.579C112.541 170.703 115.472 169.765 118.873 169.765C123.603 169.765 127.278 171.504 129.897 174.983C132.516 178.462 133.825 183.583 133.825 190.346C133.825 194.646 133.2 198.476 131.949 201.838C130.737 205.161 128.978 207.78 126.672 209.695C124.365 211.572 121.61 212.53 118.404 212.569ZM118.111 204.477C120.261 204.477 121.864 203.285 122.919 200.9C123.975 198.476 124.502 194.978 124.502 190.404C124.502 182 122.548 177.798 118.639 177.798C116.45 177.798 114.769 179.029 113.596 181.492C112.462 183.915 111.896 187.336 111.896 191.753C111.896 196.053 112.384 199.258 113.361 201.369C114.378 203.441 115.961 204.477 118.111 204.477Z" fill="black"/>
<path d="M69.1731 211.982V205.708C75.4275 201.291 79.962 197.128 82.7765 193.219C85.5911 189.31 86.9983 185.928 86.9983 183.075C86.9983 181.433 86.5488 180.163 85.6497 179.264C84.7506 178.364 83.4997 177.915 81.897 177.915C80.0988 177.915 78.5743 178.462 77.3234 179.557C76.0725 180.612 75.1539 182.019 74.5675 183.778L67.8244 180.143C68.489 178.11 69.5444 176.312 70.9908 174.749C72.4371 173.185 74.1766 171.973 76.2093 171.113C78.2811 170.214 80.5484 169.765 83.0111 169.765C85.7083 169.765 88.0538 170.292 90.0474 171.348C92.041 172.364 93.5851 173.81 94.6796 175.687C95.7741 177.524 96.3019 179.654 96.2628 182.078C96.2628 185.713 95.0901 189.407 92.7446 193.16C90.4383 196.874 86.5683 200.666 81.1347 204.536H97.2596V211.982H69.1731Z" fill="black"/>
</svg>
