<svg width="278" height="362" viewBox="0 0 278 362" fill="none" xmlns="http://www.w3.org/2000/svg">
<g filter="url(#filter0_d_1_3)">
<path d="M12.7899 146.185C8.21767 187.615 9.68054 231.897 21.6294 255.277C27.9791 273.886 47.0611 310.553 76.7303 325.141C80.8168 327.15 85.104 328.74 89.5865 329.807C89.5865 329.807 119.707 334.947 139.177 334.947C158.647 334.947 188.768 329.807 188.768 329.807C193.25 328.74 197.538 327.15 201.624 325.141C231.293 310.553 250.375 273.886 256.725 255.277C271.66 226.054 270.213 171.429 261.075 117.046C257.805 98.7974 257.787 96.0182 253.415 79.36C253.415 79.36 182.042 79.36 138.84 79.36C98.1515 79.36 32.0237 79.36 24.9304 79.36C18.2589 104.786 16.4129 117.854 12.7899 146.185Z" fill="#6DBBFF"/>
<path d="M24.9304 79.36C24.9304 79.36 95.6373 79.36 138.84 79.36M24.9304 79.36C32.0237 79.36 98.1515 79.36 138.84 79.36M24.9304 79.36C18.2589 104.786 16.4129 117.854 12.7899 146.185C8.21767 187.615 9.68054 231.897 21.6294 255.277C27.9791 273.886 47.0611 310.553 76.7303 325.141C80.8168 327.15 85.104 328.74 89.5865 329.807C89.5865 329.807 119.707 334.947 139.177 334.947C158.647 334.947 188.768 329.807 188.768 329.807C193.25 328.74 197.538 327.15 201.624 325.141C231.293 310.553 250.375 273.886 256.725 255.277C271.66 226.054 270.213 171.429 261.075 117.046C257.805 98.7974 257.787 96.0182 253.415 79.36C253.415 79.36 182.042 79.36 138.84 79.36" stroke="#87C7FF" stroke-width="8"/>
<path d="M12.79 146.185C2.23357 228.735 10.5518 313.795 72.3218 344.126C72.3218 344.126 112.968 350 139.177 350C165.387 350 206.033 344.126 206.033 344.126C275.121 310.202 277.342 207.812 261.075 117.046C270.213 171.429 269.059 219.132 256.725 255.277C250.375 273.886 231.293 307.202 201.624 321.79C197.538 323.799 193.25 325.39 188.768 326.457C188.768 326.457 158.647 331.597 139.177 331.597C119.707 331.597 89.5866 326.457 89.5866 326.457C85.1041 325.39 80.8168 323.799 76.7304 321.79C47.0611 307.202 27.9791 273.886 21.6294 255.277C12.79 229.372 8.21774 187.615 12.79 146.185Z" fill="#182A39"/>
<path fill-rule="evenodd" clip-rule="evenodd" d="M139.177 0.88678C121.13 0.88678 98.0469 1.25461 79.493 1.62185C70.2123 1.80554 62.058 1.98923 56.2236 2.127C53.3063 2.19589 50.9689 2.2533 49.3604 2.2935C48.5562 2.31359 47.9342 2.32939 47.5131 2.34017L46.8711 2.35672L44.2321 2.42569L43.2579 4.8793C36.5172 21.857 29.0126 41.9397 23.395 63.3448C16.4459 89.8226 10.8343 118.399 7.81793 145.712C2.51369 187.211 2.90576 229.641 11.5437 265.67C20.1954 301.756 38.2505 331.852 70.5588 347.716L71.1252 347.995L71.7505 348.085L71.7523 348.085L71.7585 348.086L71.8729 348.103L71.9557 348.114L72.2244 348.153C72.5326 348.196 72.9863 348.26 73.5721 348.341C74.7437 348.503 76.4438 348.733 78.5647 349.01C82.8057 349.564 88.7339 350.301 95.4865 351.039C108.951 352.511 125.844 354 139.177 354C152.511 354 169.404 352.511 182.868 351.039C189.621 350.301 195.549 349.564 199.79 349.01C201.911 348.733 203.611 348.503 204.783 348.341C205.369 348.26 205.822 348.196 206.13 348.153C206.285 348.131 206.402 348.114 206.482 348.103L206.596 348.086L206.603 348.085L206.605 348.085L207.23 347.995L207.796 347.717C243.945 329.966 263.231 294.429 270.503 252.587C277.773 210.756 274.186 161.955 266.016 116.362C259.158 75.5524 246.989 34.832 235.097 4.87929L234.123 2.42569L231.483 2.3567L230.841 2.34017C230.42 2.32939 229.798 2.31359 228.994 2.2935C227.386 2.2533 225.048 2.19589 222.131 2.127C216.297 1.98923 208.142 1.80554 198.862 1.62185C180.308 1.25461 157.225 0.88678 139.177 0.88678ZM56.4125 10.1248C53.6431 10.1902 51.3975 10.2452 49.8035 10.2849C44.0959 26.1197 38.1793 44.9049 32.7994 65.4081C26.1665 90.6872 20.3597 118.539 16.7621 146.658C12.2475 187.611 16.8027 228.746 25.4151 253.985C28.4542 262.892 34.6165 275.505 43.6457 287.656C52.6789 299.812 64.41 311.275 78.4953 318.2C82.2983 320.07 86.2628 321.543 90.3859 322.535L90.5887 322.569L90.8833 322.618C91.0703 322.649 91.2976 322.687 91.5628 322.73C92.414 322.869 93.6549 323.068 95.2062 323.307C98.3096 323.785 102.65 324.422 107.592 325.06C117.525 326.341 129.712 327.597 139.177 327.597C148.642 327.597 160.829 326.341 170.762 325.06C175.705 324.422 180.045 323.785 183.148 323.307C184.7 323.068 185.941 322.869 186.792 322.73C187.217 322.661 187.545 322.606 187.766 322.569L187.968 322.535C192.091 321.543 196.057 320.07 199.859 318.2C213.944 311.275 225.675 299.812 234.709 287.656C243.738 275.505 249.9 262.892 252.939 253.985C264.975 218.714 266.21 171.758 257.134 117.73C253.885 99.603 249.892 81.935 245.546 65.3755C240.169 44.885 234.256 26.1114 228.551 10.2849C226.957 10.2452 224.711 10.1902 221.942 10.1248C216.116 9.98718 207.972 9.80373 198.703 9.62028C180.159 9.25324 157.141 8.88678 139.177 8.88678C121.213 8.88678 98.1954 9.25324 79.6513 9.62028C70.383 9.80373 62.2391 9.98718 56.4125 10.1248ZM17.5771 255.779C18.1093 258.491 18.6908 261.167 19.3233 263.805C27.5809 298.247 44.406 325.715 73.5209 340.256C73.8094 340.297 74.1939 340.351 74.6669 340.416C75.8206 340.575 77.5007 340.804 79.5999 341.077C83.799 341.625 89.6704 342.356 96.3556 343.087C109.767 344.552 126.301 346 139.177 346C152.053 346 168.588 344.552 181.999 343.087C188.684 342.356 194.556 341.625 198.755 341.077C200.854 340.804 202.534 340.575 203.688 340.416C204.161 340.351 204.545 340.297 204.834 340.256C236.168 324.607 253.287 293.957 260.778 255.78C260.689 256.043 260.6 256.306 260.511 256.569C257.2 266.271 250.646 279.621 241.13 292.427C231.617 305.228 218.973 317.717 203.389 325.38C199.058 327.509 194.49 329.207 189.694 330.348L189.568 330.378L189.441 330.4L189.439 330.4L189.434 330.401L189.416 330.404L189.347 330.416L189.084 330.46C188.854 330.499 188.516 330.555 188.08 330.626C187.208 330.768 185.943 330.971 184.366 331.214C181.214 331.699 176.807 332.347 171.785 332.994C161.79 334.283 149.182 335.597 139.177 335.597C129.172 335.597 116.564 334.283 106.569 332.994C101.547 332.347 97.1406 331.699 93.9881 331.214C92.4113 330.971 91.147 330.768 90.2749 330.626C89.8388 330.555 89.5007 330.499 89.2706 330.46L89.0075 330.416L88.939 330.404L88.9209 330.401L88.9159 330.4L88.9145 330.4L88.7862 330.378L88.6603 330.348C83.864 329.207 79.2963 327.509 74.9656 325.38C59.3817 317.717 46.7369 305.228 37.2245 292.427C27.7079 279.621 21.1543 266.271 17.8437 256.569C17.7544 256.307 17.6655 256.044 17.5771 255.779Z" fill="#001324"/>
<path d="M170.925 230.383C167.915 230.383 165.59 229.563 163.948 227.921C162.345 226.24 161.544 223.816 161.544 220.65V186.407H170.515V220.005C170.515 221.803 171.355 222.702 173.036 222.702C173.935 222.702 174.698 222.487 175.323 222.057L177.493 228.448C176.828 228.996 175.909 229.445 174.737 229.797C173.564 230.188 172.294 230.383 170.925 230.383Z" fill="black"/>
<path d="M104.798 229.797V199.951H113.71L113.358 206.108C114.609 203.802 116.173 202.121 118.049 201.066C119.926 200.01 121.919 199.482 124.03 199.482C126.102 199.482 127.959 200.01 129.6 201.066C131.242 202.082 132.493 203.743 133.353 206.05C134.682 203.821 136.363 202.18 138.396 201.124C140.468 200.03 142.559 199.482 144.67 199.482C148.188 199.482 150.827 200.694 152.586 203.118C154.345 205.502 155.205 208.942 155.166 213.438L155.048 229.797H146.077L146.194 213.614C146.194 211.815 145.862 210.408 145.198 209.392C144.533 208.336 143.517 207.809 142.149 207.809C141.093 207.809 140.096 208.141 139.158 208.805C138.259 209.47 137.458 210.623 136.754 212.265C136.05 213.907 135.484 216.154 135.054 219.008C134.663 221.862 134.428 225.458 134.35 229.797H125.437V213.614C125.437 211.815 125.125 210.408 124.499 209.392C123.874 208.336 122.877 207.809 121.509 207.809C120.453 207.809 119.456 208.141 118.518 208.805C117.619 209.47 116.818 210.623 116.114 212.265C115.411 213.907 114.844 216.154 114.414 219.008C113.984 221.862 113.749 225.458 113.71 229.797H104.798Z" fill="black"/>
<path d="M174.163 177.611C168.964 177.689 165.016 176.048 162.319 172.686C159.621 169.285 158.273 164.047 158.273 156.971C158.273 152.593 158.918 148.743 160.208 145.42C161.537 142.058 163.413 139.459 165.837 137.622C168.299 135.745 171.231 134.807 174.632 134.807C179.362 134.807 183.037 136.547 185.656 140.026C188.275 143.505 189.584 148.626 189.584 155.388C189.584 159.688 188.959 163.519 187.708 166.881C186.496 170.204 184.737 172.823 182.431 174.738C180.124 176.614 177.368 177.572 174.163 177.611ZM173.87 169.519C176.02 169.519 177.623 168.327 178.678 165.943C179.733 163.519 180.261 160.02 180.261 155.447C180.261 147.042 178.307 142.84 174.398 142.84C172.208 142.84 170.528 144.072 169.355 146.534C168.221 148.958 167.654 152.378 167.654 156.796C167.654 161.095 168.143 164.301 169.12 166.412C170.137 168.484 171.72 169.519 173.87 169.519Z" fill="black"/>
<path d="M135.779 177.611C134.568 177.611 133.258 177.514 131.851 177.318C130.444 177.162 129.075 176.888 127.746 176.497C126.417 176.067 125.284 175.52 124.345 174.855L126.515 166.764C127.844 167.585 129.33 168.249 130.971 168.757C132.613 169.226 134.392 169.461 136.307 169.461C138.809 169.461 140.666 168.953 141.878 167.936C143.089 166.92 143.695 165.552 143.695 163.832C143.695 162.855 143.441 161.955 142.933 161.135C142.425 160.275 141.448 159.591 140.001 159.082C138.555 158.535 136.444 158.203 133.669 158.086L126.808 157.851L128.626 135.393H150.79V142.84H137.011L136.366 150.522C141.799 150.756 145.923 151.987 148.738 154.216C151.552 156.444 152.96 159.61 152.96 163.715C152.96 166.412 152.256 168.816 150.849 170.927C149.442 172.999 147.448 174.64 144.868 175.852C142.288 177.025 139.259 177.611 135.779 177.611Z" fill="black"/>
<path d="M100.68 177.611C99.3895 177.611 98.0214 177.513 96.575 177.318C95.1678 177.123 93.7996 176.829 92.4705 176.439C91.1805 176.009 90.086 175.5 89.1869 174.914L91.3564 166.881C92.6855 167.663 94.171 168.288 95.8128 168.757C97.4546 169.226 99.2527 169.461 101.207 169.461C103.787 169.461 105.644 168.992 106.778 168.054C107.95 167.115 108.537 165.923 108.537 164.477C108.537 161.271 106.054 159.669 101.09 159.669H98.51V152.281H100.68C103.26 152.281 105.058 151.792 106.074 150.815C107.129 149.798 107.657 148.587 107.657 147.179C107.657 145.967 107.227 144.971 106.367 144.189C105.546 143.368 104.276 142.957 102.556 142.957C100.719 142.957 99.1745 143.505 97.9237 144.599C96.6728 145.655 95.7541 147.062 95.1678 148.821L88.4247 145.186C89.0892 143.153 90.1446 141.355 91.591 139.791C93.0373 138.228 94.7769 137.016 96.8096 136.156C98.8814 135.257 101.149 134.807 103.611 134.807C106.269 134.807 108.595 135.276 110.589 136.214C112.583 137.153 114.127 138.482 115.221 140.202C116.316 141.883 116.863 143.876 116.863 146.182C116.863 148.137 116.316 149.974 115.221 151.694C114.166 153.414 112.602 154.704 110.53 155.564C112.876 156.229 114.674 157.343 115.925 158.906C117.176 160.47 117.801 162.464 117.801 164.887C117.801 167.311 117.098 169.5 115.69 171.454C114.283 173.37 112.289 174.875 109.709 175.969C107.169 177.064 104.159 177.611 100.68 177.611Z" fill="black"/>
</g>
<defs>
<filter id="filter0_d_1_3" x="0.337433" y="0.88678" width="278.095" height="361.113" filterUnits="userSpaceOnUse" color-interpolation-filters="sRGB">
<feFlood flood-opacity="0" result="BackgroundImageFix"/>
<feColorMatrix in="SourceAlpha" type="matrix" values="0 0 0 0 0 0 0 0 0 0 0 0 0 0 0 0 0 0 127 0" result="hardAlpha"/>
<feOffset dy="4"/>
<feGaussianBlur stdDeviation="2"/>
<feComposite in2="hardAlpha" operator="out"/>
<feColorMatrix type="matrix" values="0 0 0 0 0 0 0 0 0 0 0 0 0 0 0 0 0 0 0.25 0"/>
<feBlend mode="normal" in2="BackgroundImageFix" result="effect1_dropShadow_1_3"/>
<feBlend mode="normal" in="SourceGraphic" in2="effect1_dropShadow_1_3" result="shape"/>
</filter>
</defs>
</svg>
