<svg width="181" height="622" viewBox="0 0 181 622" fill="none" xmlns="http://www.w3.org/2000/svg">
<path d="M176.557 164.24C175.462 159.282 166.83 150.545 162.651 146.796C162.651 146.796 125.162 142.206 100.986 142.206C76.8101 142.206 39.3217 146.796 39.3217 146.796C35.1423 150.545 26.51 159.282 25.4158 164.24C30.583 237.686 37.8171 390.684 25.4158 525.274L26.7836 596.884C26.7836 596.884 26.7836 618 100.986 618C175.189 618 175.189 596.884 175.189 596.884L176.557 525.274C164.155 390.684 171.389 237.686 176.557 164.24Z" fill="#52AEFF"/>
<path d="M162.651 146.796V129.123C162.651 129.123 125.162 124.533 100.986 124.533C76.8101 124.533 39.3217 129.123 39.3217 129.123V146.796C39.3217 146.796 76.8101 142.206 100.986 142.206C125.162 142.206 162.651 146.796 162.651 146.796Z" fill="#D3D3D3"/>
<path d="M162.651 129.123C164.626 128.282 168.578 126.094 168.578 124.074V76.3338C168.578 76.3338 157.39 73.2775 139.854 70.9353C128.961 69.4802 115.618 68.3006 100.986 68.3006C62.8021 68.3006 33.3946 76.3338 33.3946 76.3338V124.074C33.3946 126.094 37.346 128.282 39.3217 129.123C39.3217 129.123 76.8101 124.533 100.986 124.533C125.162 124.533 162.651 129.123 162.651 129.123Z" fill="#25323E"/>
<path fill-rule="evenodd" clip-rule="evenodd" d="M33.3946 76.3338C33.3946 76.3338 62.8021 68.3006 100.986 68.3006C115.618 68.3006 128.961 69.4802 139.854 70.9353C87.6959 15.5713 48.2124 0.279858 33.3946 4.72372C-18.1255 20.1746 8.77433 76.3338 33.3946 76.3338ZM39.5797 64.9932C53.9324 64.9932 62.1842 54.9795 62.1842 40.5289C62.1842 26.0782 53.9324 16.0645 39.5797 16.0645C25.2269 16.0645 13.5916 26.0782 13.5916 40.5289C13.5916 54.9795 25.2269 64.9932 39.5797 64.9932Z" fill="#243B50"/>
<path d="M162.651 146.796C166.83 150.545 175.462 159.282 176.557 164.24C171.389 237.686 164.155 390.684 176.557 525.274L175.189 596.884C175.189 596.884 175.189 618 100.986 618C26.7836 618 26.7836 596.884 26.7836 596.884L25.4158 525.274C37.8171 390.684 30.583 237.686 25.4158 164.24C26.51 159.282 35.1423 150.545 39.3217 146.796M162.651 146.796V129.123M162.651 146.796C162.651 146.796 125.162 142.206 100.986 142.206C76.8101 142.206 39.3217 146.796 39.3217 146.796M162.651 129.123C164.626 128.282 168.578 126.094 168.578 124.074V76.3338C168.578 76.3338 157.39 73.2775 139.854 70.9353M162.651 129.123C162.651 129.123 125.162 124.533 100.986 124.533C76.8101 124.533 39.3217 129.123 39.3217 129.123M33.3946 76.3338V124.074C33.3946 126.094 37.346 128.282 39.3217 129.123M33.3946 76.3338C33.3946 76.3338 62.8021 68.3006 100.986 68.3006C115.618 68.3006 128.961 69.4802 139.854 70.9353M33.3946 76.3338C8.77433 76.3338 -18.1255 20.1746 33.3946 4.72372C48.2124 0.279858 87.6959 15.5713 139.854 70.9353M39.3217 146.796V129.123M62.1842 40.5289C62.1842 54.9795 53.9324 64.9932 39.5797 64.9932C25.2269 64.9932 13.5916 54.9795 13.5916 40.5289C13.5916 26.0782 25.2269 16.0645 39.5797 16.0645C53.9324 16.0645 62.1842 26.0782 62.1842 40.5289Z" stroke="#001324" stroke-width="8"/>
<path d="M123.617 281.816C123.617 285.256 122.679 287.914 120.802 289.79C118.881 291.622 116.112 292.538 112.493 292.538H73.3578V282.285H111.756C113.811 282.285 114.838 281.324 114.838 279.403C114.838 278.376 114.593 277.505 114.101 276.79L121.406 274.311C122.031 275.07 122.545 276.12 122.947 277.46C123.394 278.8 123.617 280.252 123.617 281.816Z" fill="#001323"/>
<path d="M122.947 357.391H88.8377V347.205L95.874 347.607C93.2382 346.177 91.3172 344.39 90.1109 342.246C88.9047 340.101 88.3016 337.823 88.3016 335.411C88.3016 333.043 88.9047 330.921 90.1109 329.044C91.2725 327.168 93.1712 325.738 95.807 324.756C93.2605 323.237 91.3842 321.316 90.1779 318.993C88.9271 316.625 88.3016 314.235 88.3016 311.822C88.3016 307.801 89.6865 304.786 92.4564 302.776C95.1815 300.765 99.1129 299.782 104.251 299.827L122.947 299.961V310.214L104.452 310.08C102.397 310.08 100.788 310.46 99.6267 311.219C98.4205 311.979 97.8173 313.14 97.8173 314.704C97.8173 315.91 98.1971 317.049 98.9566 318.121C99.716 319.149 101.034 320.065 102.91 320.869C104.787 321.673 107.355 322.321 110.617 322.812C113.878 323.259 117.988 323.527 122.947 323.616V333.802H104.452C102.397 333.802 100.788 334.16 99.6267 334.874C98.4205 335.589 97.8173 336.728 97.8173 338.292C97.8173 339.498 98.1971 340.637 98.9566 341.71C99.716 342.737 101.034 343.653 102.91 344.457C104.787 345.261 107.355 345.909 110.617 346.401C113.878 346.892 117.988 347.16 122.947 347.205V357.391Z" fill="#001323"/>
<path d="M123.617 381.154C123.706 387.096 121.83 391.608 117.988 394.69C114.101 397.773 108.115 399.314 100.029 399.314C95.0251 399.314 90.6246 398.577 86.8273 397.103C82.9852 395.584 80.0143 393.439 77.9146 390.67C75.7702 387.855 74.698 384.504 74.698 380.618C74.698 375.212 76.6861 371.013 80.6621 368.019C84.6382 365.026 90.4906 363.53 98.2193 363.53C103.134 363.53 107.512 364.244 111.354 365.674C115.151 367.059 118.144 369.069 120.333 371.705C122.478 374.341 123.572 377.49 123.617 381.154ZM114.369 381.489C114.369 379.032 113.007 377.2 110.282 375.994C107.512 374.788 103.513 374.184 98.2863 374.184C88.6813 374.184 83.8787 376.418 83.8787 380.886C83.8787 383.388 85.286 385.309 88.1005 386.649C90.8703 387.944 94.7794 388.592 99.8276 388.592C104.742 388.592 108.405 388.034 110.818 386.917C113.185 385.755 114.369 383.946 114.369 381.489Z" fill="#001323"/>
<path d="M123.617 421.335C123.706 427.277 121.83 431.789 117.988 434.871C114.101 437.954 108.115 439.495 100.029 439.495C95.0251 439.495 90.6246 438.758 86.8273 437.284C82.9852 435.765 80.0143 433.621 77.9146 430.851C75.7702 428.036 74.698 424.686 74.698 420.799C74.698 415.393 76.6861 411.194 80.6621 408.201C84.6382 405.207 90.4906 403.711 98.2193 403.711C103.134 403.711 107.512 404.426 111.354 405.855C115.151 407.24 118.144 409.25 120.333 411.886C122.478 414.522 123.572 417.672 123.617 421.335ZM114.369 421.67C114.369 419.213 113.007 417.381 110.282 416.175C107.512 414.969 103.513 414.366 98.2863 414.366C88.6813 414.366 83.8787 416.599 83.8787 421.067C83.8787 423.569 85.286 425.49 88.1005 426.83C90.8703 428.126 94.7794 428.773 99.8276 428.773C104.742 428.773 108.405 428.215 110.818 427.098C113.185 425.936 114.369 424.127 114.369 421.67Z" fill="#001323"/>
<path d="M123.617 465.202C123.617 466.587 123.505 468.083 123.282 469.692C123.103 471.3 122.791 472.864 122.344 474.383C121.852 475.901 121.227 477.197 120.467 478.269L111.22 475.79C112.158 474.271 112.917 472.573 113.498 470.697C114.034 468.82 114.302 466.788 114.302 464.599C114.302 461.74 113.722 459.617 112.56 458.233C111.398 456.848 109.835 456.155 107.869 456.155C106.752 456.155 105.725 456.446 104.787 457.026C103.804 457.607 103.022 458.724 102.441 460.377C101.816 462.03 101.436 464.442 101.302 467.614L101.034 475.455L75.3682 473.377V448.047H83.8788V463.795L92.6574 464.532C92.9254 458.322 94.3327 453.609 96.8791 450.392C99.4256 447.176 103.044 445.567 107.735 445.567C110.818 445.567 113.565 446.371 115.978 447.98C118.345 449.588 120.222 451.866 121.607 454.815C122.947 457.763 123.617 461.226 123.617 465.202Z" fill="#001323"/>
</svg>
