<svg width="43" height="45" viewBox="0 0 43 45" fill="none" xmlns="http://www.w3.org/2000/svg">
<path d="M0.293916 29.8597L4.68602 37.6448C4.97761 38.1611 5.45742 38.5377 6.01996 38.6917C6.5825 38.8457 7.1817 38.7645 7.68582 38.466L10.7515 36.6525C12.0252 37.6808 13.4329 38.5245 14.913 39.1545V42.75C14.913 43.3467 15.1444 43.919 15.5562 44.341C15.9681 44.7629 16.5266 45 17.1091 45H25.8933C26.4757 45 27.0343 44.7629 27.4461 44.341C27.858 43.919 28.0893 43.3467 28.0893 42.75V39.1545C29.581 38.5182 30.9811 37.6764 32.2508 36.6525L35.3165 38.466C36.364 39.0848 37.7124 38.7135 38.3163 37.6448L42.7084 29.8597C42.9975 29.3427 43.0754 28.7296 42.9253 28.1539C42.7751 27.5783 42.4091 27.0867 41.9069 26.7862L38.8939 25.002C39.1293 23.3426 39.1278 21.657 38.8895 19.998L41.9025 18.2138C42.9478 17.595 43.3101 16.2113 42.704 15.1403L38.3119 7.35525C38.0203 6.83887 37.5405 6.46227 36.978 6.30827C36.4155 6.15426 35.8163 6.23546 35.3121 6.534L32.2464 8.3475C30.9783 7.32235 29.5788 6.48049 28.0871 5.8455V2.25C28.0871 1.65326 27.8558 1.08097 27.4439 0.65901C27.0321 0.237053 26.4735 0 25.8911 0H17.1069C16.5244 0 15.9659 0.237053 15.554 0.65901C15.1422 1.08097 14.9108 1.65326 14.9108 2.25V5.8455C13.4191 6.48182 12.019 7.32358 10.7493 8.3475L7.68582 6.534C7.43628 6.38588 7.16068 6.28962 6.87479 6.25073C6.58891 6.21184 6.29834 6.23109 6.01972 6.30737C5.7411 6.38364 5.4799 6.51546 5.25105 6.69526C5.02219 6.87507 4.83019 7.09934 4.68602 7.35525L0.293916 15.1403C0.00488954 15.6573 -0.073045 16.2704 0.0770844 16.8461C0.227214 17.4217 0.593247 17.9133 1.09547 18.2138L4.10845 19.998C3.87158 21.6572 3.87158 23.3428 4.10845 25.002L1.09547 26.7862C0.0501548 27.405 -0.312193 28.7887 0.293916 29.8597ZM21.499 13.5C26.3435 13.5 30.2832 17.5365 30.2832 22.5C30.2832 27.4635 26.3435 31.5 21.499 31.5C16.6545 31.5 12.7148 27.4635 12.7148 22.5C12.7148 17.5365 16.6545 13.5 21.499 13.5Z" fill="black"/>
</svg>
